<svg xmlns="http://www.w3.org/2000/svg" xmlns:xlink="http://www.w3.org/1999/xlink" version="1.1" x="0px" y="0px" viewBox="0 0 100 125" style="enable-background:new 0 0 100 100;" xml:space="preserve"><polygon points="16.9,79.9 14.9,77.8 15.4,75.8 15.8,73.2 15.8,73.2 17,54.7 19.4,51.8 "/><polygon points="18.4,37.2 16.3,41.7 16.3,50.5 17.7,50.5 "/><polygon points="21.3,5 19,5.8 20.7,9.9 19,46.1 20.5,46.1 22.5,10 23.7,9.7 33,8.4 33.1,7.7 34.9,6.6 34.9,5.8 "/><path d="M72.6,39.2h1.3c-0.2-4.2-1.4-6.4-1.4-6.4h-1.3C72.5,35.4,72.6,39.2,72.6,39.2z"/><path d="M70.2,39.2h1.3c-0.2-4.2-1.4-6.4-1.4-6.4h-1.3C70,35.4,70.2,39.2,70.2,39.2z"/><path d="M74.6,39.2h1.1c-0.2-4.2-1.4-6.4-1.4-6.4h-1.1C74.5,35.4,74.6,39.2,74.6,39.2z"/><path d="M76.3,39.2h0.6c-0.2-4.2-1.4-6.4-1.4-6.4h-0.6C76.1,35.4,76.3,39.2,76.3,39.2z"/><path d="M23.1,45.5v2.1c0,0,7.9,3.8,21.3,5.4v41.7c0,0,4.4,0.3,6.8,0.3c2.4,0,6.8-0.3,6.8-0.3V53c13.5-1.6,21.4-5.4,21.4-5.4v-2.1  C48.3,49.3,23.1,45.5,23.1,45.5z"/><path d="M23.1,41.9c0.2,0,11.7,1,28.3,1c8.4,0,18-0.3,28.1-1v-1c-30,2.3-56.1,0-56.4,0V41.9z"/><path d="M51.2,18.3c0,0-12.3-0.7-21.3,7.3c0,0-5.1,4.2-6.3,13.6l-1,0c0-0.3-0.2-8.5,6.1-15c5-5.2,12.5-7.8,22.5-7.9  c9.9,0.1,17.5,2.7,22.5,7.9c6.3,6.5,6.1,14.7,6.1,15l-1,0c-1.2-9.4-6.3-13.6-6.3-13.6C63.5,17.6,51.2,18.3,51.2,18.3z"/><path d="M81.7,52.1c-8.3,1.8-13.3,8.1-13.3,8.1C60.1,70.4,61.6,94,61.6,94l0.7-0.3l21.8-13L81.7,52.1z M69.4,64.4  c2.6-2.4,5.2,0.3,5.2,0.3c3.7,3.8,5.8,11.6,6.6,15.7L62.4,92.2C62.7,87,64.1,69.4,69.4,64.4z"/><path d="M18.3,80.7l21.8,13l0.7,0.3c0,0,1.5-23.6-6.8-33.8c0,0-5-6.3-13.3-8.1L18.3,80.7z M40.1,92.2L21.2,80.4  c0.9-4.1,2.9-11.9,6.6-15.7c0,0,2.6-2.7,5.2-0.3C38.3,69.4,39.8,87,40.1,92.2z"/><text x="0" y="115" fill="#000000" font-size="5px" font-weight="bold" font-family="'Helvetica Neue', Helvetica, Arial-Unicode, Arial, Sans-serif">Created by Wes Breazell</text><text x="0" y="120" fill="#000000" font-size="5px" font-weight="bold" font-family="'Helvetica Neue', Helvetica, Arial-Unicode, Arial, Sans-serif">from the Noun Project</text></svg>