<svg xmlns="http://www.w3.org/2000/svg" xmlns:xlink="http://www.w3.org/1999/xlink" version="1.1" baseProfile="tiny" x="0px" y="0px" viewBox="0 0 100 125" xml:space="preserve"><g><circle fill="#000000" cx="34.7" cy="14.8" r="3.6"/><path fill="#000000" d="M44.2,13.4c-0.8,0-1.4,0.6-1.4,1.4c0,0.8,0.6,1.4,1.4,1.4c0.8,0,1.4-0.6,1.4-1.4   C45.5,14,44.9,13.4,44.2,13.4z"/><path fill="#000000" d="M73.1,5H26.9c-2,0-3.6,1.6-3.6,3.6v82.8c0,2,1.6,3.6,3.6,3.6h46.2c2,0,3.6-1.6,3.6-3.6V8.6   C76.7,6.6,75.1,5,73.1,5z M74.2,91.4c0,0.6-0.5,1.1-1.1,1.1H26.9c-0.6,0-1.1-0.5-1.1-1.1v-1l48.4-57.6V91.4z M74.2,31.8L25.8,89.5   v-4.6l48.4-57.6V31.8z M74.2,26.3L25.8,83.9V8.6c0-0.6,0.5-1.1,1.1-1.1h46.2c0.6,0,1.1,0.5,1.1,1.1V26.3z"/></g><text x="0" y="115" fill="#000000" font-size="5px" font-weight="bold" font-family="'Helvetica Neue', Helvetica, Arial-Unicode, Arial, Sans-serif">Created by Philip Glenn</text><text x="0" y="120" fill="#000000" font-size="5px" font-weight="bold" font-family="'Helvetica Neue', Helvetica, Arial-Unicode, Arial, Sans-serif">from the Noun Project</text></svg>